<?xml version="1.0" encoding="iso-8859-1"?>
<!-- Generator: Adobe Illustrator 19.0.0, SVG Export Plug-In . SVG Version: 6.00 Build 0)  -->
<svg version="1.1" id="Capa_1" xmlns="http://www.w3.org/2000/svg" xmlns:xlink="http://www.w3.org/1999/xlink" x="0px" y="0px"
	 viewBox="0 0 480 480" style="enable-background:new 0 0 480 480;" xml:space="preserve">
<path style="fill:#FF9275;" d="M64,32v432h224V32H64z M160,64h32v32h-32V64z M160,128h32v32h-32V128z M160,192h32v32h-32V192z
	 M160,256h32v32h-32V256z M160,320h32v32h-32V320z M96,64h32v32H96V64z M96,128h32v32H96V128z M96,192h32v32H96V192z M96,256h32v32
	H96V256z M96,320h32v32H96V320z M256,352h-32v-32h32V352z M256,288h-32v-32h32V288z M256,224h-32v-32h32V224z M256,160h-32v-32h32
	V160z M256,96h-32V64h32V96z"/>
<path style="fill:#FF9811;" d="M312,24V8c0-4.418-3.582-8-8-8H48c-4.418,0-8,3.582-8,8v16c0,4.418,3.582,8,8,8h256
	C308.418,32,312,28.418,312,24z"/>
<g>
	<path style="fill:#ABD3F3;" d="M96,64h32v32H96V64z"/>
	<path style="fill:#ABD3F3;" d="M160,64h32v32h-32V64z"/>
	<path style="fill:#ABD3F3;" d="M224,64h32v32h-32V64z"/>
	<path style="fill:#ABD3F3;" d="M96,128h32v32H96V128z"/>
	<path style="fill:#ABD3F3;" d="M160,128h32v32h-32V128z"/>
	<path style="fill:#ABD3F3;" d="M224,128h32v32h-32V128z"/>
	<path style="fill:#ABD3F3;" d="M96,192h32v32H96V192z"/>
	<path style="fill:#ABD3F3;" d="M160,192h32v32h-32V192z"/>
	<path style="fill:#ABD3F3;" d="M224,192h32v32h-32V192z"/>
	<path style="fill:#ABD3F3;" d="M96,256h32v32H96V256z"/>
	<path style="fill:#ABD3F3;" d="M160,256h32v32h-32V256z"/>
	<path style="fill:#ABD3F3;" d="M224,256h32v32h-32V256z"/>
	<path style="fill:#ABD3F3;" d="M96,320h32v32H96V320z"/>
	<path style="fill:#ABD3F3;" d="M160,320h32v32h-32V320z"/>
	<path style="fill:#ABD3F3;" d="M224,320h32v32h-32V320z"/>
</g>
<path style="fill:#FFE477;" d="M288,96v368h128v-48v-48v-48v-48v-48v-48v-16L288,96z"/>
<path style="fill:#FFDA44;" d="M128,392v80h96v-80c0-4.418-3.582-8-8-8h-80C131.582,384,128,387.582,128,392z"/>
<path style="fill:#BCBEC0;" d="M0,464h480v16H0V464z"/>
<g>
	<path style="fill:#FBB040;" d="M336,408h80v16h-80V408z"/>
	<path style="fill:#FBB040;" d="M336,360h80v16h-80V360z"/>
	<path style="fill:#FBB040;" d="M336,312h80v16h-80V312z"/>
	<path style="fill:#FBB040;" d="M336,264h80v16h-80V264z"/>
	<path style="fill:#FBB040;" d="M336,216h80v16h-80V216z"/>
	<path style="fill:#FBB040;" d="M336,168h80v16h-80V168z"/>
</g>
<g>
</g>
<g>
</g>
<g>
</g>
<g>
</g>
<g>
</g>
<g>
</g>
<g>
</g>
<g>
</g>
<g>
</g>
<g>
</g>
<g>
</g>
<g>
</g>
<g>
</g>
<g>
</g>
<g>
</g>
</svg>
