<svg id="Capa_1" enable-background="new 0 0 497 497" height="512" viewBox="0 0 497 497" width="512" xmlns="http://www.w3.org/2000/svg"><g><g fill="#9ea2e3"><path d="m365.537 190.5h15v84.5h-15z"/><path d="m320.537 173.5h15v101.5h-15z"/><path d="m275.537 136.5h15v138.5h-15z"/></g><g><path d="m422 150c-8.284 0-15 6.716-15 15v235.62h30v-235.62c0-8.284-6.716-15-15-15z" fill="#d34459"/><path d="m15 270c-8.284 0-15 6.716-15 15s6.716 15 15 15h467v-30z" fill="#ea5b70"/></g><path d="m496.997 170.353-29.997-.353v130 100.62h30z" fill="#ea5b70"/><path d="m495.49 163.456c-2.601-5.357-7.725-8.45-13.55-8.45-2.184 0-4.4.492-6.495 1.509-46.206 22.434-98.625 21.191-143.821-3.412-44.781-24.378-76.873-70.089-85.844-122.276l-29.566 5.082c5.188 30.181 17.117 54.198 34.497 78.916 17.431 24.789 40.449 50.408 66.569 64.628 26.189 14.257 55.643 22.162 85.176 22.861 29.017.69 58.849-5.583 86.093-18.812 5.215-2.532 8.449-7.741 8.449-13.148-.001-2.328-.422-4.661-1.508-6.898z" fill="#d4d4ff"/><g><path d="m99.075 0c-16.568 0-30 13.432-30 30v370.62h60v-370.62c0-16.568-13.431-30-30-30z" fill="#d34459"/><path d="m219.919.012c-16.954-.466-30.844 13.139-30.844 29.988h-60c-15.966 15.424-18.099 41.281 0 60h60v45h-60c-18.344 19.087-15.659 44.971 0 60h60v45h-60c-16.955 17.05-17.205 42.881 0 60h60v100.62h60v-369.996c0-16.346-12.816-30.164-29.156-30.612z" fill="#ea5b70"/></g><g fill="#313d40"><path d="m99.627 148c-4.143 0-7.5 3.357-7.5 7.5v12c0 4.143 3.357 7.5 7.5 7.5s7.5-3.357 7.5-7.5v-12c0-4.143-3.357-7.5-7.5-7.5z"/><path d="m218.523 148c-4.143 0-7.5 3.357-7.5 7.5v12c0 4.143 3.357 7.5 7.5 7.5s7.5-3.357 7.5-7.5v-12c0-4.143-3.357-7.5-7.5-7.5z"/><path d="m180.466 158.488c-3.122-2.722-7.861-2.397-10.581.728-2.729 3.132-6.669 4.928-10.81 4.928s-8.08-1.796-10.81-4.928c-2.721-3.124-7.459-3.448-10.581-.728-3.123 2.721-3.449 7.459-.728 10.581 5.578 6.402 13.641 10.074 22.118 10.074s16.54-3.672 22.118-10.074c2.723-3.122 2.397-7.86-.726-10.581z"/></g><g><g><path d="m189.075 360.108c-12.185 5.561-25.933 6.696-38.785 3.327.015-.015.029-.03.044-.045-9.773-2.544-19.104-7.698-26.731-15.479-22.672-23.01-59.915-23.115-82.689 0l-.061.062c-11.243 11.412-26.029 17.17-40.853 17.295v51.197l44.066 51.447h151.239c-4.05-9.068-6.229-19-6.229-29.211v-78.593z" fill="#55dafe"/><path d="m456.148 347.974c-21.427-21.857-56.121-23.165-79.148-3.402-6.579 5.649-22.945 26.556-58.576 18.439-10.96-1.567-21.012-6.641-29.342-15.121-22.8-23.209-60.027-22.892-82.895.25-5.078 5.139-10.892 9.128-17.112 11.967v78.593c0 10.211 2.179 20.143 6.229 29.211h269.697c.654-.664 31.322-51.303 31.999-51.928 0-37.284 0-48.239 0-50.716-14.824-.124-29.61-5.882-40.852-17.293z" fill="#bde6fc"/></g><g><path d="m412.19 417.912c-22.793-23.135-60.108-23.035-82.75.062-22.635 22.974-59.856 23.199-82.75-.062-15.469-15.701-37.749-20.769-57.614-14.984l-10 75.773 40 18.299h217.925c33.137 0 60-26.863 60-60 0-.342 0-.452 0-.442v-20.574c-22.95 23.316-62.264 24.928-84.811 1.928z" fill="#55dafe"/><path d="m189.075 438.701v-35.773c-9.202 2.68-17.888 7.682-25.136 15.046-22.882 23.225-60.212 22.929-82.75-.062-22.243-22.577-58.347-23.049-81.189-1.447v20.535c0 33.137 26.863 60 60 60h159.075c-18.827-13.449-30-35.162-30-58.299z" fill="#2ed0fc"/></g></g></g></svg>